<svg width="130" height="128" fill="none" xmlns="http://www.w3.org/2000/svg"><circle cx="25" cy="103" r="24.5" stroke="#E5E3DA"/><circle cx="105" cy="103" r="24.5" fill="#ED553B" stroke="#ED553B"/><path d="M20.622 1.567 15 3.115l5.622 1.549 1.176-.332-3.581-.986H35v-.46H18.216l3.582-.987-1.176-.332Z" fill="#8C8C8C"/><path d="m109.513 1.085-.134-.037-.134.038-1.178.332-1.729.486 1.732.477.014.004H94.5v1.46h13.586l-.016.005-1.731.477 1.729.487 1.177.33.134.039.134-.037 5.62-1.548 1.75-.483-1.75-.482-5.62-1.548Z" fill="#fff" stroke="#fff"/></svg>