<svg width="244" height="21" fill="none" xmlns="http://www.w3.org/2000/svg"><path d="M187.472 4.656a7.021 7.021 0 0 1-2.023.553 3.536 3.536 0 0 0 1.548-1.948c-.691.41-1.447.699-2.236.856a3.523 3.523 0 0 0-6.003 3.21 9.982 9.982 0 0 1-7.264-3.68 3.493 3.493 0 0 0-.477 1.772c0 1.221.62 2.3 1.568 2.932a3.503 3.503 0 0 1-1.596-.442v.045a3.526 3.526 0 0 0 2.826 3.455 3.506 3.506 0 0 1-1.591.061 3.529 3.529 0 0 0 3.29 2.449 7.065 7.065 0 0 1-5.215 1.456 9.967 9.967 0 0 0 5.401 1.585c6.481 0 10.026-5.37 10.026-10.026 0-.15-.006-.305-.012-.456a7.209 7.209 0 0 0 1.758-1.821ZM8.053 0C5.232 0 3.578 1.49 3.578 4.884v2.987H0v3.578h3.578v8.586h3.577V11.45h2.863l.715-3.578H7.155V5.49c0-1.279.418-1.912 1.618-1.912h1.96V.147C10.394.1 9.406 0 8.053 0ZM58.294 2c-2.54 0-4.628 2.085-4.628 4.629v6.484c0 2.54 2.085 4.629 4.628 4.629h6.485c2.54 0 4.629-2.085 4.629-4.629V6.63c0-2.542-2.086-4.63-4.63-4.63h-6.484Zm0 1.431h6.485a3.194 3.194 0 0 1 3.197 3.198v6.484a3.195 3.195 0 0 1-3.197 3.198h-6.484a3.194 3.194 0 0 1-3.198-3.198V6.63a3.194 3.194 0 0 1 3.197-3.199Zm7.469 1.566a.645.645 0 0 0-.649.648c0 .36.288.648.648.648a.645.645 0 0 0 .65-.648.645.645 0 0 0-.65-.648Zm-4.227.58a4.306 4.306 0 0 0-4.293 4.294 4.306 4.306 0 0 0 4.293 4.293 4.306 4.306 0 0 0 4.294-4.293 4.306 4.306 0 0 0-4.294-4.293Zm0 1.432A2.85 2.85 0 0 1 64.4 9.87a2.85 2.85 0 0 1-2.863 2.862 2.85 2.85 0 0 1-2.862-2.862 2.85 2.85 0 0 1 2.862-2.862ZM114.232 2a1.888 1.888 0 0 0-1.892 1.889c0 1.045.847 1.91 1.889 1.91 1.044 0 1.892-.865 1.892-1.909A1.89 1.89 0 0 0 114.232 2Zm9.224 5.009c-1.588 0-2.496.83-2.932 1.655h-.046V7.232h-3.129v10.51h3.261V12.54c0-1.37.103-2.696 1.799-2.696 1.673 0 1.697 1.563 1.697 2.783v5.116h3.261v-5.773c0-2.825-.608-4.96-3.911-4.96ZM112.6 7.23v10.51h3.263V7.232H112.6ZM234.698 3a4.293 4.293 0 0 0-4.293 4.293v5.01a4.294 4.294 0 0 0 4.293 4.292h5.009A4.296 4.296 0 0 0 244 12.302V8.724a.716.716 0 0 0-.715-.715h-.716a.715.715 0 0 1-.716-.716A4.293 4.293 0 0 0 237.56 3h-2.862Zm0 3.578h2.862c.394 0 .716.322.716.715a.718.718 0 0 1-.716.716h-2.862a.718.718 0 0 1-.716-.716c0-.393.322-.715.716-.715Zm0 5.009h5.009c.393 0 .715.322.715.715a.718.718 0 0 1-.715.716h-5.009a.718.718 0 0 1-.716-.716c0-.393.322-.715.716-.715Z" fill="#fff"/></svg>